<svg xmlns="http://www.w3.org/2000/svg" fill="none" viewBox="0 0 58 23" class="size-12 md:size-16 text-primary"><path fill="#4fbb81" d="M51.57 19.663V2.964q0-1.218.857-2.075Q53.316 0 54.535 0q1.218 0 2.075.89.888.856.889 2.074v16.699q0 1.218-.89 2.108-.855.856-2.075.856a2.94 2.94 0 0 1-2.107-.856 2.94 2.94 0 0 1-.857-2.108M41.921 5.994q3.393-.066 5.863 2.141t2.404 5.138q0 1.58-.856 2.24-.825.659-2.668.659h-7.279q.297.888 1.219 1.449.921.56 2.272.56 1.12 0 2.339-.462.428-.164.823-.164.922 0 1.581.659.66.659.659 1.58 0 .66-.428 1.22a2.6 2.6 0 0 1-1.022.855q-2.173.825-4.71.824-3.852 0-6.356-2.273-2.503-2.305-2.503-6.093 0-3.524 2.437-5.928 2.47-2.405 6.225-2.405m-2.602 6.423h5.237q-.461-1.91-2.635-1.91-2.108 0-2.602 1.91M32.989 19.893q0 1.12-.791 1.944a2.6 2.6 0 0 1-1.91.79q-1.383 0-1.976-.79l-2.866-3.722-2.898 3.722q-.593.79-1.976.79a2.6 2.6 0 0 1-1.91-.79 2.71 2.71 0 0 1-.791-1.944q0-.987.823-1.844l3.294-3.854-3.096-3.59a2.84 2.84 0 0 1-.692-1.877q0-1.087.79-1.877.791-.79 1.944-.79 1.284 0 2.009.888l2.503 3.228 2.47-3.228q.724-.888 2.01-.889 1.152 0 1.943.79.79.791.79 1.878 0 1.054-.691 1.877l-3.096 3.59 3.293 3.854q.824.856.824 1.844M16.205 12.68v6.785q0 1.317-.857 2.24-.823.922-2.108.922-.955 0-1.778-.527a3.07 3.07 0 0 1-1.153-1.383q-.66.856-2.01 1.416t-2.832.56q-2.107 0-3.787-1.383Q0 19.892 0 17.456q0-2.667 1.614-3.788t3.853-1.12q1.582 0 2.866.462 1.317.46 1.943 1.284v-1.811q0-.89-.79-1.417-.79-.56-2.174-.56-1.548 0-3.03.725a1.9 1.9 0 0 1-.857.198 2.06 2.06 0 0 1-1.515-.626 2.06 2.06 0 0 1-.625-1.515q0-1.284 1.185-1.91A13.1 13.1 0 0 1 8.4 5.994q3.458 0 5.599 1.515 2.207 1.515 2.207 5.171m-5.929 5.303v-.89q-.626-.855-2.338-.856-2.075 0-2.075 1.318 0 1.284 2.075 1.284 1.711 0 2.338-.856"></path></svg>