<?xml version="1.0" encoding="UTF-8"?>
<svg id="Layer_2" data-name="Layer 2" xmlns="http://www.w3.org/2000/svg" viewBox="0 0 135.08 46.36">
  <defs>
    <style>
      .cls-1 {
        fill: #2374bb;
      }

      .cls-2 {
        fill: #231f20;
      }
    </style>
  </defs>
  <g id="Layer_2-2" data-name="Layer 2">
    <g id="Logo">
      <g>
        <path class="cls-1" d="m34.65,11.18c.03-.85-.25-1.66-.77-2.06L25.77.42c-.54-.41-1.51-.52-2.44-.33.29.07.54.18.73.33l8.11,8.7c.52.4.8,1.22.77,2.06l-.03.1-8.52,23.42-.03.1c-.58.85-1.46,1.66-2.28,2.06l-14.44,8.7c-.51.25-1.1.39-1.67.41.74.54,2.24.54,3.37-.02l14.44-8.7c.81-.4,1.69-1.22,2.28-2.06l.03-.1,8.52-23.42.03-.1c0-.13,0-.25-.01-.37v-.02s.01,0,.01,0Z"/>
        <path class="cls-1" d="m44.01,20.94c.31-.24.46-.66.46-1.27v-2.32c0-.74-.14-1.28-.43-1.62-.3-.35-.79-.54-1.46-.54h-2.02v11.94h2.02c.66,0,1.18-.17,1.52-.51.34-.34.51-.89.51-1.62v-2.76c0-.47-.1-.81-.3-1.04-.09-.1-.19-.19-.31-.26h0Zm-2.03.73h.62c.16,0,.38.02.46.14.05.08.12.25.12.62v2.58c0,.64-.31.73-.59.73h-.6v-4.06h0Zm1.14-1.9c0,.22-.04.39-.12.48-.07.08-.21.13-.41.13h-.62v-3.75h.6c.21,0,.35.05.42.13.06.07.12.23.12.58v2.44h0Z"/>
        <polygon class="cls-1" points="53.6 15.19 52.18 15.19 52.18 27.13 55.67 27.13 55.67 25.73 53.6 25.73 53.6 15.19"/>
        <path class="cls-1" d="m65.55,25.11c0,.66-.31.74-.57.74s-.57-.08-.57-.74v-9.92h-1.42v9.92c0,1.41.69,2.15,1.99,2.15s1.99-.74,1.99-2.15v-9.92h-1.42v9.92h0Z"/>
        <polygon class="cls-1" points="76.08 21.77 77.49 21.77 77.49 20.33 76.08 20.33 76.08 16.62 78.08 16.62 78.08 15.19 74.66 15.19 74.66 27.13 78.15 27.13 78.15 25.73 76.08 25.73 76.08 21.77"/>
        <polygon class="cls-2" points="85.28 16.62 86.58 16.62 86.58 27.13 88 27.13 88 16.62 89.29 16.62 89.29 15.19 85.28 15.19 85.28 16.62"/>
        <path class="cls-2" d="m100.42,24.2c-.15-.88-.32-1.77-.49-2.64.55-.34.83-.94.83-1.8v-2.31c0-.81-.18-1.39-.55-1.74-.37-.34-.91-.52-1.63-.52h-1.93v11.94h1.42v-5.25h.51c.15.82.29,1.65.41,2.47.13.87.26,1.75.38,2.64l.02.15h1.51l-.03-.2c-.14-.9-.29-1.81-.45-2.73h0Zm-1.08-6.61v2.18c0,.28-.06.49-.17.61-.1.11-.3.17-.57.17h-.53v-3.93h.51c.22,0,.49.03.61.19.07.1.15.31.15.78h0Z"/>
        <polygon class="cls-2" points="109.78 21.77 111.18 21.77 111.18 20.33 109.78 20.33 109.78 16.62 111.78 16.62 111.78 15.19 108.36 15.19 108.36 27.13 111.85 27.13 111.85 25.73 109.78 25.73 109.78 21.77"/>
        <path class="cls-2" d="m120.61,15.19l-1.64,11.94h1.39l.25-1.94h1.43l.25,1.94h1.42l-1.55-11.94h-1.56Zm1.27,8.66h-1.09c.12-.93.24-1.85.36-2.77.07-.51.13-1.02.19-1.53.06.51.12,1.02.18,1.53.11.92.23,1.84.34,2.77h0Z"/>
        <path class="cls-2" d="m134.59,15.78c-.34-.39-.85-.59-1.51-.59h-1.98v11.94h1.98c1.31,0,2-.74,2-2.15v-7.64c0-.66-.17-1.19-.5-1.57h0Zm-2.06.85h.56c.2,0,.34.06.43.17.1.13.15.32.15.57v7.62c0,.66-.31.74-.59.74h-.56v-9.1Z"/>
        <g>
          <path class="cls-2" d="m7.51,23.34h1.51c.2,0,.36.02.51.06-.17-.24-.52-.35-1.05-.35h-1.51l-2.92,6.98h.66l2.79-6.68h0Z"/>
          <path class="cls-2" d="m12.25,14.26h-1.62l-2.63,6.26h.67l2.5-5.96h1.62c.07,0,.12,0,.18.01-.11-.21-.35-.32-.72-.32Z"/>
          <path class="cls-2" d="m11.94,22.28c.61.46.74,1.11.39,1.95l-2.19,5.21c-.85,2.07-2.31,3.1-4.37,3.1H.96l-.13.3h5.48c2.07,0,3.52-1.03,4.37-3.1l2.19-5.21c.44-1.06.13-1.81-.93-2.25Z"/>
          <path class="cls-2" d="m15.57,12.26c.71.58.74,1.67.08,3.25l-1.66,4c-.49,1.2-1.45,1.93-2.86,2.2l-.05.15c.21.07.4.15.56.24l.03-.08c1.41-.27,2.37-1.01,2.86-2.2l1.66-4c.8-1.91.59-3.09-.62-3.55h0Z"/>
        </g>
        <g>
          <polygon class="cls-2" points="18.41 14.26 18.29 14.57 20.23 14.57 20.36 14.26 18.41 14.26"/>
          <polygon class="cls-2" points="26.6 12.05 25.69 14.26 23.08 14.26 15.47 32.54 13.41 32.54 13.29 32.84 16.01 32.84 23.62 14.57 26.23 14.57 27.26 12.05 26.6 12.05"/>
        </g>
        <g>
          <path class="cls-1" d="m10.78,21.37c1.31.42,1.73,1.22,1.25,2.38l-2.19,5.21c-.85,2.07-2.31,3.1-4.37,3.1H0L8.64,11.26h4.67c2.41,0,3.1,1.26,2.05,3.77l-1.66,4c-.49,1.2-1.45,1.93-2.86,2.2l-.05.15h0Zm-7.03,8.16h2.06c.71,0,1.2-.3,1.46-.9l1.91-4.61c.42-.98.08-1.48-1-1.48h-1.51l-2.92,6.98h0Zm3.95-9.5h1.27c1.04,0,1.78-.5,2.2-1.51l1.35-3.25c.42-1.01.23-1.51-.58-1.51h-1.62l-2.63,6.26h0Z"/>
          <path class="cls-1" d="m22.79,13.78l-7.61,18.28h-2.72l7.61-18.28h-2.61l1.03-2.52h7.94l-1.03,2.52h-2.61Z"/>
        </g>
      </g>
    </g>
  </g>
</svg>