<svg xmlns="http://www.w3.org/2000/svg" width="1em" height="1em" fill="none" viewBox="0 0 18 20" class=""><path fill="currentColor" fill-rule="evenodd" d="M7.335.89 2.837 3.392 0 4.969l.01 5.025.008 5.026 4.47 2.49C6.948 18.88 8.978 20 9.001 20s2.053-1.12 4.511-2.49l4.47-2.489.009-5.026L18 4.969l-1.055-.585c-.58-.322-2.573-1.43-4.427-2.463A1727 1727 0 0 0 9.072.003c-.06-.03-.4.143-1.737.887m-.654 2.12-3.71 2.067-1.394.776-.01 4.133-.011 4.133 3.71 2.067c2.63 1.465 3.732 2.06 3.784 2.04.04-.014.63-.335 1.312-.713l1.239-.687.012-2.594.011-2.595.882-.085 1.097-.104.216-.02v2.074c0 1.14.015 2.067.033 2.06s.609-.334 1.313-.726l1.279-.713-.01-4.135-.011-4.136-1.271-.71c-.7-.39-1.286-.71-1.302-.711-.018 0-.031.987-.031 2.195s-.014 2.195-.031 2.195-.492-.036-1.056-.08a84 84 0 0 0-1.077-.08c-.04 0-.051-.576-.051-2.747V3.166l-1.282-.712-1.303-.722c-.012-.006-1.064.57-2.338 1.278m-.91 1.608-3.19 1.78.001 3.597.001 3.598 3.159 1.756c1.737.966 3.176 1.763 3.198 1.77.024.008.04-.487.04-1.32v-1.333l-.462-.206c-.254-.113-.978-.44-1.61-.728-.631-.287-1.434-.65-1.784-.807s-.659-.302-.687-.322c-.04-.03-.051-.567-.051-2.451V7.539l.502-.23c.277-.127 1.31-.596 2.297-1.043l1.794-.812v-1.31c0-.722-.004-1.31-.01-1.308-.006.001-1.445.803-3.199 1.782" clip-rule="evenodd"></path></svg>