<svg xmlns="http://www.w3.org/2000/svg" width="263" height="82" viewBox="0 0 263 82"><mask id="a" fill="#fff"><path fill-rule="evenodd" d="M0 0h76v82H0z"/></mask><mask id="b" fill="#fff"><path fill-rule="evenodd" d="M0 1.644V.243h.982v1.401z"/></mask><mask id="c" fill="#fff"><path fill-rule="evenodd" d="M.172 13.04h24.111V.074H.172z"/></mask><g fill="none" fill-rule="evenodd"><path fill="#354860" d="m107.413 26.73-7.11 18.829h-.081l-6.99-18.829h-7.111l11.305 28.73h4.994l11.665-28.73zm10.746 18.87q0 2.232 1.259 3.611 1.257 1.38 3.534 1.38t3.535-1.38q1.26-1.379 1.26-3.611c0-2.232-.42-2.692-1.26-3.612q-1.257-1.38-3.535-1.38-2.277 0-3.534 1.38-1.26 1.38-1.26 3.612m-5.993 0q0-2.353.84-4.262a9.8 9.8 0 0 1 2.297-3.265q1.458-1.36 3.435-2.09a12.1 12.1 0 0 1 4.214-.731q2.238 0 4.215.73t3.435 2.09a9.8 9.8 0 0 1 2.298 3.266q.837 1.91.838 4.262 0 2.355-.838 4.26a9.8 9.8 0 0 1-2.298 3.267q-1.458 1.36-3.435 2.09t-4.215.73-4.214-.73q-1.977-.73-3.435-2.09a9.8 9.8 0 0 1-2.298-3.267q-.839-1.905-.839-4.26m23.97 9.86h5.992V35.74h-5.992zm-.48-25.93q0-1.46 1.02-2.495Q137.692 26 139.13 26q1.44 0 2.457 1.035a3.43 3.43 0 0 1 1.02 2.496 3.43 3.43 0 0 1-1.02 2.495q-1.018 1.035-2.457 1.035-1.437 0-2.456-1.035a3.43 3.43 0 0 1-1.02-2.495m22.731 12.579q-.44-.65-1.238-1.075a3.6 3.6 0 0 0-1.718-.426q-2.277 0-3.536 1.38t-1.258 3.61c0 2.23.419 2.693 1.258 3.612q1.26 1.38 3.536 1.38.998 0 1.718-.446.718-.447 1.238-1.056l3.955 4.22a7.6 7.6 0 0 1-3.297 2.05q-1.898.588-3.614.589-2.238 0-4.214-.731-1.98-.73-3.436-2.09a9.8 9.8 0 0 1-2.297-3.266q-.84-1.907-.84-4.261t.84-4.26a9.8 9.8 0 0 1 2.297-3.268q1.456-1.36 3.436-2.09a12.1 12.1 0 0 1 4.214-.73q1.718 0 3.614.588a7.6 7.6 0 0 1 3.297 2.05zm18.215 1.258q.04-1.541-.999-2.638-1.039-1.095-2.676-1.095-.999 0-1.758.324a4.4 4.4 0 0 0-1.298.832q-.54.508-.838 1.177-.301.669-.34 1.4zm5.073 8.684a9.6 9.6 0 0 1-3.634 2.881 10.8 10.8 0 0 1-4.554 1.015q-2.238 0-4.215-.73-1.978-.73-3.435-2.09a9.8 9.8 0 0 1-2.298-3.267q-.837-1.908-.838-4.26 0-2.355.838-4.262a9.8 9.8 0 0 1 2.298-3.266q1.457-1.36 3.435-2.09 1.977-.731 4.215-.73 2.077-.001 3.774.73a7.86 7.86 0 0 1 2.877 2.09q1.178 1.36 1.817 3.266.639 1.908.639 4.261v1.907H168.69q.36 1.745 1.559 2.78 1.197 1.035 2.956 1.035 1.477 0 2.497-.67a6.8 6.8 0 0 0 1.777-1.724zm12.743-18.504-5.673 5.073-3.395-3.978 9.228-7.912h5.593v28.73h-5.753zm12.903 15.461 10.986-10.024a21 21 0 0 0 1.677-1.744q.84-.974.84-2.273 0-1.46-1.04-2.293-1.038-.831-2.436-.831-1.679 0-2.617 1.055-.938 1.056-1.059 2.597l-5.991-.447q.12-2.231.918-3.875.799-1.644 2.117-2.74 1.319-1.095 3.096-1.643 1.778-.549 3.855-.548 1.918 0 3.595.548t2.916 1.624q1.238 1.075 1.939 2.698.697 1.624.698 3.774 0 1.38-.28 2.495a8.5 8.5 0 0 1-.778 2.03 9.3 9.3 0 0 1-1.179 1.683 20 20 0 0 1-1.478 1.502l-8.588 7.507h12.542v5.357h-19.733zm29.121-10.957h1.957q.84 0 1.638-.122a4.6 4.6 0 0 0 1.458-.466 2.73 2.73 0 0 0 1.059-.974q.4-.63.4-1.643 0-1.3-1.02-2.152-1.018-.85-2.496-.851-1.398 0-2.317.77a3.54 3.54 0 0 0-1.198 1.907l-6.591-1.38q.48-1.865 1.437-3.185a8 8 0 0 1 2.277-2.13q1.32-.81 2.937-1.197a14.7 14.7 0 0 1 3.415-.386q1.878 0 3.615.467 1.739.467 3.056 1.46a7.3 7.3 0 0 1 2.097 2.497q.78 1.5.78 3.571 0 2.394-1.239 4.098-1.238 1.704-3.595 2.19v.123q1.278.164 2.257.77a6.1 6.1 0 0 1 1.658 1.502q.68.894 1.038 2.03.36 1.136.36 2.394 0 2.152-.82 3.774-.818 1.624-2.196 2.698c-1.378 1.074-1.998 1.252-3.236 1.604q-1.858.526-3.934.527-3.797 0-6.531-1.786-2.737-1.785-3.616-5.64l6.312-1.502q.319 1.542 1.298 2.435.978.893 2.896.893 1.958 0 2.895-1.035.94-1.035.94-2.657 0-1.218-.5-1.888a3 3 0 0 0-1.298-.994 5.7 5.7 0 0 0-1.797-.386q-1-.06-1.998-.06h-1.398zM252 26v.977h1.917V32h1.056v-5.023h1.916V26zm9.953 0-1.702 2.835L258.548 26H257.5v6h.968v-4.286l1.75 2.811h.033l1.766-2.829V32H263v-6z"/><path fill="#2c95dc" d="M38 82c-2.081 0-4.16-.534-6.058-1.603L6.4 66.011C2.453 63.787 0 59.564 0 54.991V27.01c0-4.575 2.453-8.798 6.401-11.022l25.54-14.386a12.25 12.25 0 0 1 12.117 0L69.6 15.99c3.947 2.225 6.4 6.447 6.4 11.022v27.98c0 4.573-2.452 8.796-6.4 11.02L44.059 80.397A12.3 12.3 0 0 1 38 82" mask="url(#a)"/><g fill="#fff"><path d="M50.4 42.225c-1.315 2.227-5.52 3.77-12.302 3.77s-9.92-1.315-12.258-3.77v6.866c0 2.584 5.499 4.961 12.28 4.961 6.782 0 12.28-2.377 12.28-4.96zm-8.387-14.561q.625.602 1.245 1.218.575-.436 1.151-.86-.615-.637-1.238-1.263-.579.448-1.158.905m7.343 10.96c-.151.104-.303.214-.454.32q.468.575.935 1.158c.268-.363.459-.74.562-1.123q-.268-.35-.54-.696z"/><path d="M42.912 43.57q.12-.02.24-.043l-.082-.089q-.078.067-.158.133m.898-.836.38.4q.747-.179 1.417-.398-.37-.41-.742-.815-.527.401-1.055.813m1.797-1.252q.464.519.924 1.045.63-.256 1.173-.55-.535-.64-1.077-1.27-.51.383-1.02.775m1.797-1.243q.577.683 1.146 1.379a7 7 0 0 0 .95-.76q-.54-.687-1.086-1.363a87 87 0 0 0-1.01.744m-8.386-11.183a111 111 0 0 0-1.198-1.085q-.6.537-1.198 1.085.601.515 1.198 1.038.597-.524 1.198-1.038m3.042.849c.184-.145.369-.284.552-.427q-.61-.608-1.226-1.204-.308.248-.614.498-.278.231-.556.466.618.574 1.23 1.16zm.552 2.909a120 120 0 0 0-1.224-1.204q-.588.479-1.172.967.62.573 1.233 1.156.58-.466 1.163-.919m3.295-2.915q-.546-.667-1.097-1.321-.5.416-1 .843.556.635 1.107 1.28.495-.407.99-.802m-1.497 1.458q-.619-.638-1.242-1.263c-.202.155-.403.307-.604.464-.185.144-.367.293-.55.438q.625.605 1.249 1.22.572-.435 1.146-.859m-3.594-.426q-.601-.577-1.207-1.14-.597.509-1.189 1.028.61.542 1.211 1.094.592-.496 1.185-.982m-6.621-.534q.613-.585 1.23-1.158-.277-.235-.556-.467c-.204-.168-.409-.33-.613-.498q-.616.598-1.227 1.204.277.213.552.428c.205.161.409.328.614.491m13.21 3.158q.57.69 1.132 1.391.483-.35.965-.687-.558-.724-1.122-1.436-.488.36-.975.732m-14.931-3.461q-.624.625-1.242 1.263.574.424 1.147.86.622-.617 1.25-1.22c-.184-.146-.367-.295-.551-.439q-.3-.234-.604-.464m16.429 2.191q.644.718 1.283 1.448.256-.155.514-.308v-.963q-.362-.428-.725-.852-.536.332-1.072.675M37.221 30.82q-.591-.52-1.188-1.028-.606.563-1.208 1.14.595.486 1.185.982.603-.551 1.211-1.094m1.797 1.573a118 118 0 0 0-1.198-1.085q-.601.537-1.198 1.085.6.513 1.198 1.038.597-.525 1.198-1.038m.682 10.742q-.493.451-.981.91.925-.017 1.797-.085-.407-.415-.816-.825m-2.778-25.473q-.917.047-1.797.222.405.341.811.687.491-.457.986-.91m3.594.152a11 11 0 0 0-1.797-.151q.473.45.942.91.427-.383.855-.76m-4.427 25.323q-.333.392-.665.79.724.085 1.498.12-.416-.46-.833-.91m7.122-24.58a9 9 0 0 0-.599-.287l.394.48q.102-.098.205-.193M31.253 20.02l.577-.618-.282-.224q-.797.469-1.515 1.05l.612.466c.203-.224.404-.451.608-.673m1.307-1.146-.13.06.04.032zm11.826 1.407q.305.356.608.715.455-.374.913-.74-.745-.601-1.569-1.08-.264.223-.528.45.289.326.576.655m4.516 8.676q.645.715 1.283 1.44l.514-.306v-.236q-.001-.4-.033-.791-.336-.396-.675-.79a81 81 0 0 0-1.09.683m1.089-1.896.11-.073a11.5 11.5 0 0 0-.565-1.746q-.316.22-.633.445.548.682 1.087 1.374m-3.263-4.245q.489-.382.978-.753-.438-.56-.88-1.112a12 12 0 0 0-.268-.258 85 85 0 0 0-.949.768q.562.672 1.12 1.355m.677.736q.61.687 1.21 1.387.444-.299.887-.59-.272-.51-.591-.991l-.454-.542q-.525.363-1.052.736m1.498 12.07q.645.717 1.283 1.447.258-.155.514-.305v-.98q-.356-.42-.715-.838-.54.333-1.082.676"/><path d="M.53.58C.365.465.198.356.03.243L0 .282v.564c.086.27.214.537.376.798L.982.896C.832.792.681.683.531.58" mask="url(#b)" transform="translate(25.541 37.98)"/><path d="M27.232 39.496q-.398.493-.793.993.383.43.899.826.447-.543.898-1.08-.503-.374-1.004-.74m3.448 2.427q-.323.36-.647.726.71.266 1.51.487l.287-.308a107 107 0 0 0-1.15-.905m-.647-20.418q-.32-.256-.643-.507-.622.608-1.154 1.307.342.253.685.513.553-.662 1.112-1.313m-4.458 13.443-.034.047v1.773q.447-.599.898-1.188a78 78 0 0 0-.864-.632m3.487 5.762q-.414.569-.826 1.147.496.356 1.083.672.356-.478.714-.951a80 80 0 0 0-.97-.868m-3.46-9.098-.062.075v2.048q.596-.699 1.198-1.389a97 97 0 0 0-1.136-.734m.78-6.065q-.132.3-.243.607.22-.244.441-.485c-.066-.042-.132-.08-.198-.122m1.853-1.955q-.317-.239-.634-.47a12 12 0 0 0-.863 1.545q.195.135.389.274.55-.68 1.108-1.349m-2.606 4.684q-.087.725-.089 1.473v.347q.447-.61.898-1.21-.405-.31-.809-.61m9.794 4.303q-.584-.488-1.172-.967-.614.597-1.224 1.204.584.454 1.164.919.614-.583 1.232-1.156m7.191-11.001q.32.315.638.633.577-.439 1.156-.867c-.194-.2-.385-.403-.58-.6q-.325-.33-.653-.655-.582.45-1.163.912.302.288.602.577m-1.8 16.018q-.598-.57-1.201-1.132-.6.512-1.195 1.035.603.538 1.203 1.088.596-.502 1.193-.99m-4.807-15.689q.604-.554 1.213-1.095-.59-.52-1.184-1.028-.608.566-1.212 1.142.594.484 1.183.981m6.604-2.443a118 118 0 0 0-1.221-1.196q-.589.48-1.175.971.616.57 1.226 1.152.585-.469 1.17-.927m-2.98 2.443q.59-.496 1.183-.98-.603-.577-1.212-1.143-.593.508-1.184 1.028.609.54 1.213 1.095m-7.502.845q-.57-.428-1.14-.845-.632.657-1.256 1.324.566.393 1.132.799.628-.645 1.264-1.278m.896-1.175q.299-.29.601-.577-.58-.462-1.162-.912-.328.325-.654.655c-.195.197-.386.4-.58.6q.58.428 1.157.867c.213-.21.424-.424.638-.633m2.398-2.337q-.585-.493-1.174-.972-.615.594-1.222 1.196.587.457 1.171.927.61-.581 1.225-1.152m7.188 20.236q-.603-.602-1.212-1.192-.593.483-1.184.98.61.565 1.214 1.143.59-.47 1.182-.93m2.462-15.446q.566-.405 1.132-.8-.624-.667-1.257-1.323-.57.417-1.139.846.636.633 1.264 1.277m.833 12.54q-.546-.667-1.097-1.32-.5.42-1 .85.554.63 1.103 1.273.495-.407.994-.803M30.033 24.823a99 99 0 0 0-.992-.793q-.556.682-1.104 1.374.49.37.982.749.553-.67 1.114-1.33m17.218 10.929q.225-.17.453-.337-.552-.694-1.11-1.378-.494.39-.987.79.561.66 1.118 1.333c.175-.136.35-.275.526-.408m-2.841 2.274q-.615-.635-1.236-1.26-.58.45-1.16.91.621.601 1.24 1.213.576-.437 1.155-.863m2.995-7.801q.566.686 1.128 1.386.485-.351.969-.69-.556-.723-1.118-1.433-.49.362-.979.737m-.683-4.072q.491-.38.983-.748-.549-.693-1.104-1.375-.496.391-.993.793.562.66 1.114 1.33m1.813 2.122q.483-.352.967-.695-.555-.72-1.116-1.427-.49.363-.98.735.568.689 1.129 1.387m-9.516-9.225q-.596-.548-1.198-1.085-.6.537-1.198 1.085.602.513 1.198 1.038.598-.525 1.198-1.038m2.995 21.965q.621.599 1.236 1.21.58-.442 1.16-.87a120 120 0 0 0-1.228-1.253q-.585.452-1.168.913m-1.797 1.565q.62.574 1.234 1.161.58-.465 1.162-.918-.612-.608-1.228-1.204-.585.474-1.168.96m-.612-2.779q-.594.506-1.185 1.026.608.542 1.212 1.096.59-.496 1.184-.98-.603-.578-1.211-1.143m-3.567.001q-.609.564-1.212 1.14.594.486 1.184.982.606-.554 1.212-1.097-.59-.519-1.184-1.026m.585 2.599q.601.514 1.199 1.04.597-.526 1.197-1.04-.596-.547-1.197-1.083-.6.536-1.199 1.083m7.188-2.962q.633.63 1.26 1.273.567-.408 1.136-.806-.621-.664-1.25-1.317-.575.42-1.146.85m4.06-2.9c-.155.117-.31.24-.466.357q.568.689 1.13 1.39c.175-.126.35-.257.524-.382l.443-.31q-.557-.721-1.119-1.43c-.17.125-.34.247-.511.375m-2.264 1.629q.562.66 1.12 1.33.487-.378.977-.746-.55-.695-1.107-1.376-.495.39-.99.792M28.236 26.889q-.49-.375-.98-.736-.562.708-1.116 1.427.483.343.966.695.562-.698 1.13-1.386m0 6.668q-.488-.373-.974-.733-.564.712-1.122 1.436.482.338.965.687.563-.701 1.131-1.39m4.792 9.266q.583.454 1.162.918.615-.587 1.234-1.162-.581-.486-1.167-.96-.616.596-1.229 1.204m-5.258-6.286c-.17-.128-.341-.25-.512-.377q-.562.71-1.118 1.432.222.154.443.31c.175.124.349.255.523.38q.562-.7 1.13-1.388-.232-.18-.466-.357m.466-6.312q-.489-.374-.978-.737-.562.71-1.118 1.432.485.34.969.691.56-.699 1.127-1.386m4.224 9.877q-.617.621-1.229 1.253.582.429 1.16.87.616-.61 1.236-1.21-.581-.461-1.167-.913m-3.417-2.729q-.556.681-1.106 1.376.488.367.978.747.556-.672 1.118-1.331-.495-.401-.99-.792m1.642 1.213q-.63.653-1.25 1.317.569.398 1.136.806.626-.642 1.26-1.273-.572-.43-1.146-.85m8.333.479q-.597-.55-1.198-1.085-.6.536-1.198 1.085.6.513 1.198 1.037.598-.525 1.198-1.037m1.797-4.79q-.606-.58-1.217-1.147-.591.505-1.179 1.02.614.545 1.22 1.102.588-.494 1.176-.975m-5.391 1.641q-.585-.49-1.175-.969-.614.593-1.22 1.197.585.457 1.17.926.61-.582 1.225-1.154m7.188.229q-.608-.605-1.22-1.198-.59.479-1.176.97.615.57 1.225 1.153.585-.47 1.171-.925m-5.391-1.997q-.586-.515-1.178-1.02-.611.568-1.218 1.147.59.481 1.176.975a123 123 0 0 1 1.22-1.102m1.797 1.577q-.596-.546-1.197-1.081-.602.535-1.199 1.081.6.514 1.199 1.042.597-.527 1.197-1.042m8.686-3.65q-.55-.692-1.105-1.374-.496.391-.992.793.56.658 1.114 1.33.49-.38.983-.749m-1.797 1.155q-.544-.663-1.093-1.316-.503.42-1.004.852.553.63 1.1 1.271.498-.408.997-.807m-1.497 1.457q-.614-.634-1.232-1.256-.583.451-1.165.915.623.598 1.239 1.208.579-.44 1.157-.867m-10.782-.341q-.581-.464-1.164-.915-.618.621-1.232 1.256.579.427 1.158.867.615-.61 1.238-1.208m1.198-6.738q.282.225.56.454.309.257.615.517.609-.56 1.221-1.106a107 107 0 0 0-1.177-1.017q-.61.57-1.219 1.152m1.797-1.888q.6.515 1.199 1.04.597-.525 1.197-1.04-.597-.547-1.197-1.084-.6.537-1.199 1.084m9.973 1.646q-.495.39-.988.79.562.66 1.117 1.332.49-.378.98-.746-.551-.693-1.109-1.376m-8.175.107q.611.546 1.22 1.106c.205-.172.409-.347.615-.517l.56-.454q-.607-.583-1.22-1.152-.589.502-1.176 1.017m-5.391-1.323q.582.45 1.161.912.615-.588 1.235-1.164-.58-.486-1.163-.958-.619.6-1.233 1.21m-2.298 7.887q.548-.642 1.1-1.271a93 93 0 0 0-1.003-.852q-.549.653-1.093 1.316.498.398.996.807m.501-6.015q.576.424 1.152.86.62-.615 1.244-1.218a104 104 0 0 0-1.157-.905q-.622.625-1.239 1.263M29.734 29.9q.495.395.99.801.552-.645 1.106-1.278a87 87 0 0 0-1-.844q-.55.654-1.096 1.32m6.888-7.515q.6.514 1.199 1.04.597-.526 1.197-1.04-.597-.548-1.197-1.083-.6.535-1.199 1.083M28.39 35.752l.526.408q.555-.673 1.117-1.332-.494-.401-.987-.79-.556.683-1.11 1.376c.152.114.303.223.453.338m3.441.348q-.5-.43-1-.85-.551.653-1.096 1.32.498.396.994.803.548-.642 1.102-1.273m-2.91-3.276q.553-.671 1.113-1.33-.495-.402-.991-.793-.555.681-1.105 1.375.491.367.982.748m-.982-4.081q.49.367.98.745.556-.672 1.116-1.332-.493-.4-.988-.79-.556.682-1.108 1.377m1.797-2.182q.496.397.993.805.55-.644 1.103-1.275a87 87 0 0 0-1-.848q-.551.653-1.096 1.318m3.893 11.116q-.58-.461-1.16-.91-.621.624-1.236 1.259.58.426 1.157.863.615-.611 1.24-1.212m3.593-.179q-.596-.522-1.195-1.035-.603.562-1.2 1.132.597.49 1.192.991.6-.55 1.203-1.088m6.589-11.407q.555.63 1.104 1.275.496-.409.993-.805a129 129 0 0 0-1.096-1.318 93 93 0 0 0-1 .848m-8.387 13.171q-.59-.495-1.183-.98-.61.592-1.213 1.193.593.461 1.182.93.606-.576 1.214-1.143m4.792-16.69q.615.57 1.228 1.155a102 102 0 0 1 1.168-.922 126 126 0 0 0-1.224-1.201q-.588.478-1.172.968m1.797 1.751q.63.605 1.253 1.223.57-.433 1.143-.855a123 123 0 0 0-1.247-1.268 98 98 0 0 0-1.149.9m-3.593-.179q.607.544 1.212 1.099.59-.496 1.183-.98-.603-.577-1.21-1.143-.594.507-1.186 1.024m-3.594.119q.593.484 1.184.98.604-.555 1.212-1.099-.592-.517-1.185-1.024-.609.566-1.21 1.143m-1.798-1.458q.586.454 1.17.922.61-.584 1.226-1.155-.584-.49-1.17-.968-.615.595-1.226 1.2m7.188 3.093q.62.577 1.235 1.165.58-.46 1.161-.911-.614-.611-1.232-1.211-.583.473-1.164.957m-8.985-1.205q.573.421 1.144.854c.416-.41.833-.82 1.252-1.222a104 104 0 0 0-1.148-.9q-.627.628-1.248 1.268"/><path d="M21.55 6.575c1.595-1.74 2.519-3.997 2.733-6.5-1.29 2.237-5.996 3.947-11.782 3.947C6.773 4.022 2.467 2.54.17.074.707 5.73 5.143 10.143 12.364 10.143c1.654 0 3.143-.226 4.465-.64l7.044 3.537z" mask="url(#c)" transform="translate(25.84 51.93)"/></g></g></svg>