<?xml version="1.0" encoding="utf-8"?>
<!-- Designed by Vexels.com - 2019 All Rights Reserved - https://vexels.com/terms-and-conditions/  -->
<svg version="1.1" id="Layer_1" xmlns="http://www.w3.org/2000/svg" xmlns:xlink="http://www.w3.org/1999/xlink" x="0px" y="0px"
	 viewBox="0 0 1200 1200" enable-background="new 0 0 1200 1200" xml:space="preserve">
<g>
	<path opacity="0.3" d="M118.917,796.801c15.311,42.605,35.435,82.893,60.531,119.663c31.119,45.59,69.372,85.766,112.807,119.663
		c90.112,70.314,203.171,112.598,326.331,112.598c123.154,0,236.214-42.285,326.329-112.598
		c43.435-33.897,81.688-74.073,112.806-119.663c25.097-36.77,45.222-77.058,60.532-119.663c13.7-38.12,23.498-78.068,28.165-119.658
		c2.207-19.664,3.582-39.576,3.582-59.835c0-20.253-1.375-40.166-3.582-59.83c-4.667-41.593-14.462-81.539-28.165-119.663
		c-15.311-42.604-35.436-82.891-60.532-119.661c-31.12-45.59-69.371-85.769-112.806-119.661
		c-67.723-52.842-148.458-89.456-236.733-104.478c-29.188-4.968-58.994-8.124-89.596-8.124
		c-202.657,0-378.718,113.498-468.351,280.339c-0.944,1.76-1.679,3.639-2.607,5.412C109.2,445.155,87.17,528.607,87.17,617.308
		c0,20.259,1.375,40.17,3.582,59.835C95.417,718.734,105.216,758.682,118.917,796.801z"/>
	<g>
		<path fill="#CB001C" d="M907.745,163.877C840.023,111.035,759.287,74.42,671.012,59.398v104.478H907.745z"/>
		<path fill="#F4F4F4" d="M671.012,283.537h349.539c-31.12-45.59-69.371-85.769-112.806-119.66H671.012V283.537z"/>
		<path fill="#CB001C" d="M671.012,403.198h410.071c-15.311-42.604-35.435-82.891-60.532-119.661H671.012V403.198z"/>
		<path fill="#F4F4F4" d="M671.012,522.861h438.237c-4.666-41.593-14.462-81.539-28.165-119.663H671.012V522.861z"/>
		<path fill="#CB001C" d="M671.012,642.526h438.237c2.206-19.665,3.582-39.577,3.582-59.835c0-20.253-1.375-40.166-3.582-59.83
			H671.012V642.526z"/>
		<path fill="#F4F4F4" d="M1109.249,642.526H671.012H53.582c4.666,41.59,14.465,81.539,28.165,119.658h999.336
			C1094.784,724.065,1104.583,684.117,1109.249,642.526z"/>
		<path fill="#CB001C" d="M1081.083,762.184H81.747c15.311,42.604,35.435,82.894,60.532,119.663h878.272
			C1045.648,845.078,1065.772,804.789,1081.083,762.184z"/>
		<path fill="#CB001C" d="M907.745,1001.51H255.086c90.112,70.313,203.171,112.597,326.331,112.597
			C704.571,1114.108,817.631,1071.823,907.745,1001.51z"/>
		<path fill="#F4F4F4" d="M1020.551,881.847H142.28c31.118,45.59,69.371,85.766,112.806,119.663h652.659
			C951.18,967.613,989.434,927.438,1020.551,881.847z"/>
		<path fill="#2A3560" d="M671.012,522.861V403.198V283.537v-119.66V59.398c-29.187-4.968-58.994-8.124-89.596-8.124
			c-202.657,0-378.719,113.498-468.35,280.338l25.907-3.763l14.759-29.907l14.761,29.907l33.004,4.795l-23.882,23.278l5.639,32.875
			l-29.523-15.52l-29.52,15.52l5.636-32.875l-19.389-18.898C72.031,410.537,50,493.991,50,582.691
			c0,20.258,1.375,40.171,3.582,59.835h617.43V522.861z M183.255,578.975l-29.523-15.523l-29.52,15.523l5.636-32.87l-23.882-23.283
			l33.007-4.797l14.759-29.907l14.761,29.907l33.004,4.797l-23.882,23.283L183.255,578.975z M283.927,483.885l-29.52-15.52
			l-29.52,15.52l5.639-32.873l-23.884-23.28l33.007-4.795l14.759-29.907l14.761,29.907l33.007,4.795l-23.884,23.28L283.927,483.885z
			 M278.291,266.298l5.636,32.873l-29.52-15.52l-29.52,15.52l5.639-32.873l-23.884-23.28l33.007-4.795l14.759-29.907l14.761,29.907
			l33.007,4.795L278.291,266.298z M380.011,578.975l-29.52-15.523l-29.523,15.523l5.639-32.87l-23.882-23.283l33.004-4.797
			l14.761-29.907l14.759,29.907l33.004,4.797l-23.882,23.283L380.011,578.975z M374.372,355.922l5.639,32.875l-29.52-15.52
			l-29.523,15.52l5.639-32.875l-23.882-23.278l33.004-4.795l14.761-29.907l14.759,29.907l33.004,4.795L374.372,355.922z
			 M374.372,165.748l5.639,32.873l-29.52-15.52l-29.523,15.52l5.639-32.873l-23.882-23.278l33.004-4.797l14.761-29.907
			l14.759,29.907l33.004,4.797L374.372,165.748z M477.581,483.885l-29.52-15.52l-29.523,15.52l5.641-32.873l-23.884-23.28
			l33.004-4.795l14.761-29.907l14.759,29.907l33.007,4.795l-23.882,23.28L477.581,483.885z M471.945,266.298l5.636,32.873
			l-29.52-15.52l-29.523,15.52l5.641-32.873l-23.884-23.28l33.004-4.795l14.761-29.907l14.759,29.907l33.007,4.795L471.945,266.298z
			 M576.766,578.975l-29.52-15.523l-29.52,15.523l5.636-32.87l-23.882-23.283l33.004-4.797l14.761-29.907l14.759,29.907
			l33.007,4.797l-23.882,23.283L576.766,578.975z M571.13,355.922l5.636,32.875l-29.52-15.52l-29.52,15.52l5.636-32.875
			l-23.882-23.278l33.004-4.795l14.761-29.907l14.759,29.907l33.007,4.795L571.13,355.922z M571.13,165.748l5.636,32.873
			l-29.52-15.52l-29.52,15.52l5.636-32.873L499.48,142.47l33.004-4.797l14.761-29.907l14.759,29.907l33.007,4.797L571.13,165.748z"
			/>
		<polygon fill="#FFFFFF" points="350.491,107.765 335.729,137.673 302.725,142.47 326.607,165.748 320.968,198.62 350.491,183.1 
			380.011,198.62 374.372,165.748 398.254,142.47 365.249,137.673 		"/>
		<polygon fill="#FFFFFF" points="547.246,107.765 532.485,137.673 499.48,142.47 523.362,165.748 517.726,198.62 547.246,183.1 
			576.766,198.62 571.13,165.748 595.012,142.47 562.005,137.673 		"/>
		<path fill="#FFFFFF" d="M124.212,388.798l29.52-15.52l29.523,15.52l-5.639-32.875l23.882-23.278l-33.004-4.795l-14.761-29.907
			l-14.759,29.907l-25.907,3.763c-0.945,1.76-1.68,3.639-2.606,5.412l19.389,18.898L124.212,388.798z"/>
		<polygon fill="#FFFFFF" points="350.491,297.942 335.729,327.85 302.725,332.645 326.607,355.922 320.968,388.798 
			350.491,373.277 380.011,388.798 374.372,355.922 398.254,332.645 365.249,327.85 		"/>
		<polygon fill="#FFFFFF" points="547.246,297.942 532.485,327.85 499.48,332.645 523.362,355.922 517.726,388.798 547.246,373.277 
			576.766,388.798 571.13,355.922 595.012,332.645 562.005,327.85 		"/>
		<polygon fill="#FFFFFF" points="168.494,518.025 153.733,488.117 138.974,518.025 105.967,522.822 129.849,546.105 
			124.212,578.975 153.733,563.452 183.255,578.975 177.617,546.105 201.498,522.822 		"/>
		<polygon fill="#FFFFFF" points="365.249,518.025 350.491,488.117 335.729,518.025 302.725,522.822 326.607,546.105 
			320.968,578.975 350.491,563.452 380.011,578.975 374.372,546.105 398.254,522.822 		"/>
		<polygon fill="#FFFFFF" points="562.005,518.025 547.246,488.117 532.485,518.025 499.48,522.822 523.362,546.105 
			517.726,578.975 547.246,563.452 576.766,578.975 571.13,546.105 595.012,522.822 		"/>
		<polygon fill="#FFFFFF" points="254.407,208.316 239.648,238.223 206.642,243.018 230.526,266.298 224.887,299.171 
			254.407,283.651 283.927,299.171 278.291,266.298 302.175,243.018 269.169,238.223 		"/>
		<polygon fill="#FFFFFF" points="448.061,208.316 433.299,238.223 400.295,243.018 424.179,266.298 418.538,299.171 
			448.061,283.651 477.581,299.171 471.945,266.298 495.826,243.018 462.819,238.223 		"/>
		<polygon fill="#FFFFFF" points="269.169,422.937 254.407,393.03 239.648,422.937 206.642,427.732 230.526,451.012 
			224.887,483.885 254.407,468.365 283.927,483.885 278.291,451.012 302.175,427.732 		"/>
		<polygon fill="#FFFFFF" points="462.819,422.937 448.061,393.03 433.299,422.937 400.295,427.732 424.179,451.012 
			418.538,483.885 448.061,468.365 477.581,483.885 471.945,451.012 495.826,427.732 		"/>
	</g>
</g>
</svg>
