<?xml version="1.0" encoding="utf-8"?>
<!-- Designed by Vexels.com - 2019 All Rights Reserved - https://vexels.com/terms-and-conditions/  -->
<svg version="1.1" id="Layer_1" xmlns="http://www.w3.org/2000/svg" xmlns:xlink="http://www.w3.org/1999/xlink" x="0px" y="0px"
	 viewBox="0 0 1200 1200" enable-background="new 0 0 1200 1200" xml:space="preserve">
<g>
	<path opacity="0.3" d="M618.584,1148.723c202.017,0,377.675-112.737,467.567-278.716C1126.857,794.849,1150,708.784,1150,617.31
		c0-91.478-23.143-177.542-63.849-252.701C996.259,198.631,820.601,85.895,618.584,85.895
		c-202.014,0-377.675,112.736-467.567,278.714C110.31,439.768,87.169,525.831,87.169,617.31c0,91.474,23.141,177.54,63.848,252.696
		C240.909,1035.986,416.568,1148.723,618.584,1148.723z"/>
	<g>
		<path fill="#FFCE33" d="M1112.831,582.693c0-91.479-23.143-177.542-63.848-252.701H113.848C73.141,405.151,50,491.213,50,582.693
			c0,91.474,23.141,177.539,63.848,252.696h935.134C1089.688,760.232,1112.831,674.167,1112.831,582.693z"/>
		<path fill="#CB001C" d="M581.415,51.277c-202.014,0-377.675,112.736-467.567,278.714h935.134
			C959.09,164.014,783.432,51.277,581.415,51.277z"/>
		<path fill="#CB001C" d="M581.415,1114.106c202.017,0,377.675-112.736,467.567-278.717H113.848
			C203.74,1001.369,379.398,1114.106,581.415,1114.106z"/>
	</g>
</g>
</svg>
